{
    "asset" : {
        "generator" : "Khronos glTF Blender I/O v1.5.17",
        "version" : "2.0"
    },
    "scene" : 0,
    "scenes" : [
        {
            "name" : "Scene",
            "nodes" : [
                0
            ]
        }
    ],
    "nodes" : [
        {
            "mesh" : 0,
            "name" : "Turtle.001",
            "scale" : [
                0.3125,
                0.21875,
                0.0625
            ],
            "translation" : [
                0,
                0.09375,
                0.3412500023841858
            ]
        }
    ],
    "materials" : [
        {
            "doubleSided" : true,
            "name" : "Material",
            "pbrMetallicRoughness" : {
                "baseColorTexture" : {
                    "index" : 0
                },
                "roughnessFactor" : 0
            }
        }
    ],
    "meshes" : [
        {
            "name" : "Turtle.002",
            "primitives" : [
                {
                    "attributes" : {
                        "POSITION" : 0,
                        "NORMAL" : 1,
                        "TEXCOORD_0" : 2,
                        "COLOR_0" : 3
                    },
                    "indices" : 4,
                    "material" : 0
                }
            ]
        }
    ],
    "textures" : [
        {
            "sampler" : 0,
            "source" : 0
        }
    ],
    "images" : [
        {
            "mimeType" : "image/png",
            "name" : "turtle_advanced",
            "uri" : "turtle_advanced.png"
        }
    ],
    "accessors" : [
        {
            "bufferView" : 0,
            "componentType" : 5126,
            "count" : 76,
            "max" : [
                1.2000000476837158,
                1.2857143878936768,
                1.0399999618530273
            ],
            "min" : [
                -1.2000000476837158,
                -2.142857313156128,
                -11.960000038146973
            ],
            "type" : "VEC3"
        },
        {
            "bufferView" : 1,
            "componentType" : 5126,
            "count" : 76,
            "type" : "VEC3"
        },
        {
            "bufferView" : 2,
            "componentType" : 5126,
            "count" : 76,
            "type" : "VEC2"
        },
        {
            "bufferView" : 3,
            "componentType" : 5123,
            "count" : 76,
            "normalized" : true,
            "type" : "VEC4"
        },
        {
            "bufferView" : 4,
            "componentType" : 5123,
            "count" : 120,
            "type" : "SCALAR"
        }
    ],
    "bufferViews" : [
        {
            "buffer" : 0,
            "byteLength" : 912,
            "byteOffset" : 0
        },
        {
            "buffer" : 0,
            "byteLength" : 912,
            "byteOffset" : 912
        },
        {
            "buffer" : 0,
            "byteLength" : 608,
            "byteOffset" : 1824
        },
        {
            "buffer" : 0,
            "byteLength" : 608,
            "byteOffset" : 2432
        },
        {
            "buffer" : 0,
            "byteLength" : 240,
            "byteOffset" : 3040
        }
    ],
    "samplers" : [
        {
            "magFilter" : 9728,
            "minFilter" : 9984
        }
    ],
    "buffers" : [
        {
            "byteLength" : 3280,
            "uri" : "Turtle.bin"
        }
    ]
}
